<?xml version="1.0" encoding="iso-8859-1"?>
<!-- Generator: Adobe Illustrator 19.0.0, SVG Export Plug-In . SVG Version: 6.00 Build 0)  -->
<svg xmlns="http://www.w3.org/2000/svg" xmlns:xlink="http://www.w3.org/1999/xlink" version="1.1" id="Capa_1" x="0px" y="0px" viewBox="0 0 496 496" style="enable-background:new 0 0 496 496;" xml:space="preserve" width="512px" height="512px">
<g>
	<g>
		<g>
			<path d="M323.968,232.328c-4.08-0.664-8.184-0.272-11.968,1.048v-8.52c0-12.128-8.608-22.672-20.032-24.528     c-4.456-0.72-8.92-0.208-12.976,1.432c-2.584-8.936-9.904-15.952-19.024-17.432c-4.08-0.664-8.192-0.272-11.968,1.048V160     c0-7.048-3.08-13.712-8.456-18.288c-5.384-4.576-12.496-6.544-19.52-5.392c-5.36,0.872-10.056,3.712-13.576,7.672H192v-48h-16v64     h24.072c-0.008,0.296-0.072,0.576-0.072,0.864V320h16V160.856c0-4.296,2.896-8.136,6.592-8.744     c2.424-0.384,4.768,0.248,6.584,1.792c1.792,1.52,2.824,3.744,2.824,6.096v48v112h16V208c0-2.352,1.032-4.576,2.824-6.096     c1.824-1.552,4.152-2.184,6.576-1.792c3.704,0.608,6.6,4.448,6.6,8.744V224v96h16v-96c0-2.352,1.032-4.576,2.824-6.096     c1.824-1.552,4.152-2.184,6.576-1.792c3.704,0.608,6.6,4.448,6.6,8.744V256v64h16v-64c0-2.352,1.032-4.576,2.824-6.096     c1.824-1.552,4.16-2.184,6.576-1.792c3.704,0.608,6.6,4.448,6.6,8.744v115.832l-32,32V480h-96v-83.312l-32-32V280     c0-13.232,10.768-24,24-24v-16c-22.056,0-40,17.944-40,40v91.312l32,32V496h128v-84.688l32-32V256.856     C344,244.728,335.392,234.184,323.968,232.328z" fill="#006DF0"/>
			<polygon points="184,176 160,176 160,16 320,16 320,176 296,176 296,192 336,192 336,0 144,0 144,192 184,192    " fill="#006DF0"/>
			<polygon points="304,88 304,32 176,32 176,80 192,80 192,48 288,48 288,88    " fill="#006DF0"/>
			<polygon points="304,104 288,104 288,144 264,144 264,160 304,160    " fill="#006DF0"/>
			<rect x="208" y="64" width="64" height="16" fill="#006DF0"/>
			<rect x="208" y="96" width="64" height="16" fill="#006DF0"/>
			<polygon points="96,380.688 32,316.688 32,251.312 112,171.312 112,88 96,88 96,164.688 32,228.688 32,176 16,176 16,323.312      96,403.312 96,464 112,464 112,320 96,320    " fill="#006DF0"/>
			<path d="M104,256c-13.232,0-24,10.768-24,24s10.768,24,24,24s24-10.768,24-24S117.232,256,104,256z M104,288     c-4.416,0-8-3.584-8-8c0-4.416,3.584-8,8-8s8,3.584,8,8C112,284.416,108.416,288,104,288z" fill="#006DF0"/>
			<path d="M48,136c0-13.232-10.768-24-24-24S0,122.768,0,136s10.768,24,24,24S48,149.232,48,136z M16,136c0-4.408,3.584-8,8-8     s8,3.592,8,8s-3.584,8-8,8S16,140.408,16,136z" fill="#006DF0"/>
			<path d="M104,24c-13.232,0-24,10.768-24,24s10.768,24,24,24s24-10.768,24-24S117.232,24,104,24z M104,56c-4.416,0-8-3.592-8-8     s3.584-8,8-8s8,3.592,8,8S108.416,56,104,56z" fill="#006DF0"/>
			<polygon points="464,228.688 400,164.688 400,88 384,88 384,171.312 464,251.312 464,316.688 400,380.688 400,320 384,320      384,448 400,448 400,403.312 480,323.312 480,176 464,176    " fill="#006DF0"/>
			<rect x="384" y="464" width="16" height="32" fill="#006DF0"/>
			<path d="M416,280c0-13.232-10.768-24-24-24s-24,10.768-24,24s10.768,24,24,24S416,293.232,416,280z M384,280c0-4.416,3.584-8,8-8     c4.416,0,8,3.584,8,8c0,4.416-3.584,8-8,8C387.584,288,384,284.416,384,280z" fill="#006DF0"/>
			<path d="M472,112c-13.232,0-24,10.768-24,24s10.768,24,24,24s24-10.768,24-24S485.232,112,472,112z M472,144     c-4.416,0-8-3.592-8-8s3.584-8,8-8c4.416,0,8,3.592,8,8S476.416,144,472,144z" fill="#006DF0"/>
			<path d="M392,72c13.232,0,24-10.768,24-24s-10.768-24-24-24s-24,10.768-24,24S378.768,72,392,72z M392,40c4.416,0,8,3.592,8,8     s-3.584,8-8,8c-4.416,0-8-3.592-8-8S387.584,40,392,40z" fill="#006DF0"/>
			<rect x="96" y="480" width="16" height="16" fill="#006DF0"/>
		</g>
	</g>
</g>
<g>
</g>
<g>
</g>
<g>
</g>
<g>
</g>
<g>
</g>
<g>
</g>
<g>
</g>
<g>
</g>
<g>
</g>
<g>
</g>
<g>
</g>
<g>
</g>
<g>
</g>
<g>
</g>
<g>
</g>
</svg>
